<?xml version="1.0" encoding="utf-8"?>
<svg viewBox="0 0 89.665001 31.931999" xmlns="http://www.w3.org/2000/svg">
    <g id="layer1" transform="matrix(1, 0, 0, 1, -43.41573715209961, -55.84880447387695)">
        <path
            d="M 79.34 69.22 C 78.91 68.27 78.19 67.8 77.12 67.8 C 76.02 67.8 75.33 68.27 74.9 69.22 L 72.15 75.31 C 72.1 75.43 72.06 75.53 72.03 75.65 L 74.4 75.65 C 74.41 75.56 74.45 75.46 74.48 75.37 L 74.88 74.45 L 79.42 74.45 L 79.83 75.39 C 79.86 75.46 79.89 75.54 79.92 75.65 L 82.23 75.65 C 82.2 75.53 82.17 75.43 82.11 75.31 Z M 75.63 72.76 L 76.8 70.02 C 76.87 69.83 77 69.78 77.14 69.78 C 77.28 69.78 77.42 69.85 77.49 70.02 L 78.67 72.76 Z M 84.7 72.92 L 88.27 72.92 C 88.88 72.92 89.11 73.11 89.11 73.6 L 89.11 75.14 C 89.11 75.31 89.13 75.48 89.15 75.65 L 91.23 75.65 C 91.2 75.43 91.19 75.25 91.19 74.92 L 91.19 73.39 C 91.19 72.51 90.96 72.1 90.45 71.8 C 91 71.4 91.18 70.82 91.18 70.21 C 91.18 69.63 90.94 69.1 90.57 68.7 C 90.15 68.26 89.55 67.97 88.6 67.97 L 83.15 67.97 C 82.81 67.97 82.64 68.13 82.64 68.45 L 82.64 75.65 L 84.7 75.65 Z M 84.7 71.17 L 84.7 70.06 C 84.7 69.96 84.75 69.89 84.87 69.89 L 88.33 69.89 C 88.59 69.89 88.77 69.97 88.89 70.09 C 89 70.21 89.06 70.37 89.06 70.53 C 89.06 70.67 89 70.81 88.91 70.92 C 88.78 71.07 88.61 71.17 88.33 71.17 Z M 92.84 67.97 C 92.12 67.97 91.76 68.31 91.76 69.01 L 91.76 74.58 C 91.76 75.29 92.12 75.65 92.83 75.65 L 99.83 75.65 L 99.83 73.68 L 93.99 73.68 C 93.87 73.68 93.81 73.61 93.81 73.48 L 93.81 72.55 L 99.79 72.55 L 99.79 71.07 L 93.81 71.07 L 93.81 70.2 C 93.81 70.07 93.87 70 93.99 70 L 99.83 70 L 99.83 67.97 Z M 100.55 67.97 L 100.55 70 L 103.92 70 L 103.92 75.65 L 105.99 75.65 L 105.99 70 L 109.35 70 L 109.35 67.97 Z M 112.23 67.97 C 111.51 67.97 111.14 68.31 111.14 69.01 L 111.14 74.58 C 111.14 75.29 111.51 75.65 112.22 75.65 L 119.21 75.65 L 119.21 73.68 L 113.38 73.68 C 113.25 73.68 113.2 73.61 113.2 73.48 L 113.2 72.55 L 119.18 72.55 L 119.18 71.07 L 113.2 71.07 L 113.2 70.2 C 113.2 70.07 113.25 70 113.38 70 L 119.21 70 L 119.21 67.97 Z M 120.28 67.97 L 120.28 75.65 L 122.35 75.65 L 122.35 72.25 L 126.03 75.33 C 126.17 75.44 126.28 75.54 126.37 75.65 L 129.44 75.65 C 129.35 75.54 129.25 75.45 129.14 75.36 L 124.61 71.7 C 124.56 71.65 124.55 71.63 124.55 71.57 C 124.55 71.51 124.57 71.48 124.61 71.45 L 128.84 68.18 C 128.91 68.12 129 68.04 129.04 67.97 L 126.17 67.97 C 126.09 68.07 125.96 68.2 125.85 68.29 L 122.35 71.12 L 122.35 67.97 Z"
            style="fill: rgb(150, 40, 111); stroke: rgb(150, 40, 111); stroke-width: 0.212808px;" />
        <g id="layer1-5" transform="matrix(0.45976664,0,0,0.45976664,32.319039,28.39456)">
            <path id="path9" style="fill:#96286f;stroke-width:0.566929"
                d="m 53.234749,398.19391 a 13.9375,13.9375 0 0 1 -13.9375,13.9375 13.9375,13.9375 0 0 1 -13.9375,-13.9375 13.9375,13.9375 0 0 1 13.9375,-13.9375 13.9375,13.9375 0 0 1 13.9375,13.9375 z"
                transform="matrix(2.1020749,0,0,2.1020749,-27.059796,-742.59369)" />
            <path id="path88-2" style="color:#000000;fill:#ffffff;fill-opacity:1;-inkscape-stroke:none"
                d="m 53.157021,366.0084 c -0.532064,0 -0.96875,0.43669 -0.96875,0.96875 0,0.53207 0.436686,0.96875 0.96875,0.96875 0.532064,0 0.96875,-0.43668 0.96875,-0.96875 0,-0.53206 -0.436686,-0.96875 -0.96875,-0.96875 z m 0,0.5 c 0.261844,0 0.46875,0.20691 0.46875,0.46875 0,0.26185 -0.206906,0.46875 -0.46875,0.46875 -0.261844,0 -0.46875,-0.2069 -0.46875,-0.46875 0,-0.26184 0.206906,-0.46875 0.46875,-0.46875 z m -1.603516,0.30274 c -0.532064,0 -0.96875,0.43668 -0.96875,0.96875 0,0.53206 0.436686,0.96875 0.96875,0.96875 0.532065,0 0.96875,-0.43669 0.96875,-0.96875 0,-0.53207 -0.436685,-0.96875 -0.96875,-0.96875 z m 0,0.5 c 0.261845,0 0.46875,0.2069 0.46875,0.46875 0,0.26184 -0.206905,0.46875 -0.46875,0.46875 -0.261844,0 -0.46875,-0.20691 -0.46875,-0.46875 0,-0.26185 0.206906,-0.46875 0.46875,-0.46875 z m 3.886719,-3.86524 c -0.532064,0 -0.96875,0.43669 -0.96875,0.96875 0,0.53207 0.436686,0.96875 0.96875,0.96875 0.532064,0 0.96875,-0.43668 0.96875,-0.96875 0,-0.53206 -0.436686,-0.96875 -0.96875,-0.96875 z m 0,0.5 c 0.261845,0 0.46875,0.20691 0.46875,0.46875 0,0.26185 -0.206905,0.46875 -0.46875,0.46875 -0.261844,0 -0.46875,-0.2069 -0.46875,-0.46875 0,-0.26184 0.206906,-0.46875 0.46875,-0.46875 z m -0.955078,0.87305 c -0.532064,0 -0.96875,0.43669 -0.96875,0.96875 0,0.53206 0.436686,0.96875 0.96875,0.96875 0.532064,0 0.96875,-0.43669 0.96875,-0.96875 0,-0.53206 -0.436686,-0.96875 -0.96875,-0.96875 z m 0,0.5 c 0.261844,0 0.46875,0.20691 0.46875,0.46875 0,0.26184 -0.206906,0.46875 -0.46875,0.46875 -0.261844,0 -0.46875,-0.20691 -0.46875,-0.46875 0,-0.26184 0.206906,-0.46875 0.46875,-0.46875 z M 44.47678,358.5061 c -9.200614,0 -16.740235,7.53959 -16.740235,16.74023 0,9.20061 7.539621,16.74024 16.740235,16.74024 7.577454,0 14.024225,-5.11648 16.064453,-12.06055 h -8.152344 c -1.588048,2.70289 -4.515011,4.50195 -7.912109,4.50195 -5.115428,0 -9.181641,-4.0662 -9.181641,-9.18164 0,-5.11543 4.066213,-9.18164 9.181641,-9.18164 2.09944,0 3.530311,0.42241 5.064453,1.58594 0.196928,0.14935 0.633141,0.3905 1.109375,0.47852 -0.04237,-0.1085 -0.06641,-0.22675 -0.06641,-0.34961 0,-0.53207 0.436686,-0.96875 0.96875,-0.96875 0.244742,0 0.467268,0.0962 0.638672,0.24804 -0.0022,-0.0267 -0.0039,-0.0548 -0.0039,-0.082 0,-0.53206 0.436687,-0.96875 0.968751,-0.96875 0.148877,0 0.289496,0.0367 0.416015,0.0977 -0.03517,-0.0999 -0.05664,-0.20694 -0.05664,-0.31836 0,-0.53206 0.436686,-0.96875 0.96875,-0.96875 0.02677,0 0.05187,0.006 0.07813,0.008 -0.05914,-0.12496 -0.0918,-0.26554 -0.0918,-0.41211 0,-0.53206 0.436686,-0.96875 0.96875,-0.96875 0.532063,0 0.96875,0.43669 0.96875,0.96875 0,0.10344 -0.01638,0.20316 -0.04687,0.29688 1.780182,0.0106 2.031641,-2.81897 1.570312,-2.38282 -1.047804,0.99063 -1.830009,0.91039 -2.134765,0.62891 -2.985624,-2.75756 -6.964108,-4.45117 -11.320313,-4.45117 z m 11.884766,6.20508 c 0.0305,-0.0937 0.04687,-0.19344 0.04687,-0.29688 0,-0.53206 -0.436687,-0.96875 -0.96875,-0.96875 -0.532064,0 -0.96875,0.43669 -0.96875,0.96875 0,0.14657 0.03266,0.28715 0.0918,0.41211 0.212648,0.0176 0.408477,0.10061 0.560546,0.23438 0.153876,-0.0788 0.306519,-0.14247 0.457032,-0.19727 -0.04423,0.0136 -0.09153,0.0195 -0.140625,0.0195 -0.261844,0 -0.46875,-0.2069 -0.46875,-0.46875 0,-0.26184 0.206906,-0.46875 0.46875,-0.46875 0.261844,0 0.46875,0.20691 0.46875,0.46875 0,0.19639 -0.116499,0.36313 -0.285157,0.43359 0.248607,-0.0865 0.490303,-0.13913 0.716797,-0.13476 0.0076,1.5e-4 0.01398,-0.002 0.02148,-0.002 z m -1.238282,0.34961 c -0.170846,-0.15028 -0.395115,-0.24219 -0.638671,-0.24219 -0.532064,0 -0.96875,0.43669 -0.96875,0.96875 0,0.11142 0.02147,0.21843 0.05664,0.31836 0.0081,0.004 0.0174,0.006 0.02539,0.01 0.134185,-0.11333 0.277473,-0.21975 0.417969,-0.32812 0,-0.26184 0.206906,-0.46875 0.46875,-0.46875 0.0513,0 0.10054,0.009 0.146484,0.0234 0.164251,-0.10532 0.328239,-0.19735 0.492187,-0.28125 z m -1.52539,1.05468 c -0.132506,-0.0684 -0.282977,-0.10742 -0.441406,-0.10742 -0.532064,0 -0.968751,0.43669 -0.968751,0.96875 0,0.0273 0.0017,0.0553 0.0039,0.082 0.0692,0.0613 0.13213,0.12873 0.18164,0.20703 0.0872,-0.0902 0.214363,-0.20549 0.316407,-0.30664 0.009,-0.25214 0.208797,-0.44916 0.46289,-0.45117 0.142804,-0.13096 0.2901,-0.26148 0.445313,-0.39258 z m -1.22461,1.15039 c -0.172137,-0.27225 -0.476755,-0.45507 -0.820312,-0.45507 -0.532064,0 -0.96875,0.43668 -0.96875,0.96875 0,0.12286 0.02404,0.24111 0.06641,0.34961 0.197131,0.0364 0.398346,0.0436 0.595703,0.008 -0.09964,-0.0855 -0.162109,-0.21362 -0.162109,-0.35742 0,-0.26185 0.206906,-0.46875 0.46875,-0.46875 0.219838,0 0.400673,0.14589 0.453125,0.34765 0.09925,-0.11096 0.164638,-0.18311 0.367187,-0.39258 z m -2.511165,1.3695 c -0.532064,0 -0.96875,0.43668 -0.96875,0.96875 0,0.53206 0.436686,0.96875 0.96875,0.96875 0.532064,0 0.96875,-0.43669 0.96875,-0.96875 0,-0.53207 -0.436686,-0.96875 -0.96875,-0.96875 z m 0,0.5 c 0.261845,0 0.46875,0.2069 0.46875,0.46875 0,0.26184 -0.206905,0.46875 -0.46875,0.46875 -0.261844,0 -0.46875,-0.20691 -0.46875,-0.46875 0,-0.26185 0.206906,-0.46875 0.46875,-0.46875 z m -5.414616,-2.16831 c -4.567036,0 -8.277344,3.71031 -8.277344,8.27734 0,4.56704 3.710308,8.27734 8.277344,8.27734 2.829147,0 5.328084,-1.42432 6.820313,-3.59375 h -0.945313 c -1.375329,1.72479 -3.493632,2.83008 -5.875,2.83008 -4.154406,0 -7.513672,-3.35927 -7.513672,-7.51367 0,-4.1544 3.359266,-7.51367 7.513672,-7.51367 1.696928,0 3.260997,0.56324 4.517578,1.50976 0.100406,-0.24493 0.298385,-0.44189 0.544922,-0.53906 -1.400024,-1.08536 -3.156335,-1.73436 -5.0625,-1.73437 z m 5.0625,1.73437 c -0.246537,0.0972 -0.444516,0.29413 -0.544922,0.53906 0.14784,0.11136 0.290628,0.22788 0.429688,0.34961 0.0071,-0.2553 0.209558,-0.45508 0.466797,-0.45508 0.08183,0 0.158151,0.0209 0.224609,0.0566 -0.184665,-0.17214 -0.376393,-0.33536 -0.576172,-0.49024 z M 45.9729,379.05518 h 2.552747 v 1.27168 H 45.9729 Z m 0,-2.92372 h 14.580495 v 3.28503 H 45.972902 Z"
                transform="matrix(1.3174043,0,0,1.3174043,-2.610804,-399.91142)" />
        </g>
    </g>
</svg>